<?xml version="1.0"?><svg xmlns="http://www.w3.org/2000/svg" viewBox="0 0 100 100"><path d="M89.064 84.341l.493-7.145a5.067 5.067 0 0 0-1.396-3.311L75.057 60.141a5.064 5.064 0 0 0-3.666-1.57h-7.808a3.574 3.574 0 0 1-3.574-3.574v-5.623c4.494-2.129 7.611-6.693 7.611-11.996V23.822c0-7.27-5.893-13.163-13.163-13.163h-8.913c-7.27 0-13.163 5.893-13.163 13.163v13.557c0 5.303 3.116 9.867 7.611 11.996v5.623c0 1.974-1.6 3.574-3.574 3.574H28.61c-1.385 0-2.71.567-3.666 1.57L11.839 73.884a5.062 5.062 0 0 0-1.396 3.312l.493 7.145" fill="none" stroke="#000" stroke-width="3" stroke-linecap="round" stroke-linejoin="round" stroke-miterlimit="10"/><metadata xmlns:d="https://loading.io/stock/">
<d:name>people</d:name>
<d:tags>people,salesman,figure,avatar,man,person,member,crew,staff,owner</d:tags>
<d:license>by</d:license>
<d:slug>wyzwd</d:slug>
</metadata></svg>